Coordinates
version=1
nRows=8
nColumns=40
inDegrees=yes

Units are S.I. units (second, meters, Newtons, ...)
Angles are in degrees.

endheader
time	pelvis_tilt	pelvis_list	pelvis_rotation	pelvis_tx	pelvis_ty	pelvis_tz	hip_flexion_r	hip_adduction_r	hip_rotation_r	knee_angle_r	knee_angle_r_beta	ankle_angle_r	subtalar_angle_r	mtp_angle_r	hip_flexion_l	hip_adduction_l	hip_rotation_l	knee_angle_l	knee_angle_l_beta	ankle_angle_l	subtalar_angle_l	mtp_angle_l	lumbar_extension	lumbar_bending	lumbar_rotation	arm_flex_r	arm_add_r	arm_rot_r	elbow_flex_r	pro_sup_r	wrist_flex_r	wrist_dev_r	arm_flex_l	arm_add_l	arm_rot_l	elbow_flex_l	pro_sup_l	wrist_flex_l	wrist_dev_l
     38.62000000	     -5.07954938	     -3.41152152	      0.05480494	      0.98859439	      0.91583171	      0.41110932	     15.92010049	     -9.01054482	     -3.83796525	     51.56387993	     51.56387993	      2.91953900	     -9.33224090	    -19.30694270	     23.47365310	     -2.63833411	     -3.25402732	     32.03826080	     32.03826080	     16.38854010	    -17.49424497	      8.90545607	    -10.29098364	      7.74293703	      4.33887058	     21.07315434	    -13.36920505	    -16.50243401	     22.81088941	     45.65521124	      0.00000000	      0.00000000	     20.54591910	    -13.40547260	     19.50044101	     40.39223498	     44.52313630	      0.00000000	      0.00000000
     38.64207143	     -4.76322606	     -3.48489217	     -0.78409563	      0.98932574	      0.91346206	      0.40908862	     18.43449051	     -8.68449324	     -2.05523308	     55.92372402	     55.92372402	      0.73091216	    -11.82798610	    -18.19092024	     23.35718065	     -2.78104185	     -3.65516600	     33.36720721	     33.36720721	     17.32234056	    -18.00232004	      8.69703074	    -10.48962227	      7.95193274	      3.95346432	     17.10900677	    -12.59735318	    -16.43457899	     21.37961868	     45.69706878	      0.00000000	      0.00000000	     22.33073336	    -14.33331476	     18.71727173	     41.69907022	     44.64764032	      0.00000000	      0.00000000
     38.66414286	     -4.37458800	     -3.61597743	     -1.65085817	      0.99015582	      0.91154111	      0.40723076	     20.68721242	     -8.12434607	     -0.43617985	     59.77511813	     59.77511813	     -0.96952820	    -13.90836342	    -15.84839562	     23.06477263	     -3.00907014	     -4.13103967	     34.58815915	     34.58815915	     18.43236645	    -18.25937997	      8.88546032	    -10.85466743	      8.21713323	      3.78351304	     12.82587851	    -12.02359329	    -16.35720423	     20.10064832	     45.73425693	      0.00000000	      0.00000000	     24.14153235	    -15.22723459	     17.46768559	     43.51999737	     44.82876704	      0.00000000	      0.00000000
     38.68621429	     -3.96297754	     -3.69367288	     -2.55324415	      0.99097621	      0.91025913	      0.40558944	     22.80003781	     -7.56887675	      0.90012245	     63.22552619	     63.22552619	     -0.99313194	    -14.58051297	    -10.06165655	     22.58733052	     -3.16565630	     -4.66575508	     35.56480651	     35.56480651	     19.82481336	    -18.39666327	     10.13472293	    -11.33631806	      8.42187405	      3.60063587	      8.27861509	    -11.51052056	    -16.13374554	     19.85360534	     45.75082445	      0.00000000	      0.00000000	     25.58876031	    -16.05906716	     14.65693745	     46.33310314	     45.19541766	      0.00000000	      0.00000000
     38.70828571	     -3.76947012	     -3.61447481	     -3.48149920	      0.99169479	      0.90963147	      0.40428554	     24.77423311	     -7.20535990	      1.86822188	     65.55706436	     65.55706436	     -1.89899446	    -15.87975596	     -8.32024174	     22.01085757	     -3.16964347	     -5.34483474	     35.86101832	     35.86101832	     20.47232472	    -18.55309473	     10.23291340	    -11.43260879	      8.41383952	      3.03092451	      4.44238995	    -10.98049476	    -16.11014436	     18.68991981	     45.78170987	      0.00000000	      0.00000000	     27.27480018	    -17.24908953	     13.40432694	     47.46566631	     45.35220049	      0.00000000	      0.00000000
     38.73035714	     -3.54626403	     -3.71412666	     -4.40075734	      0.99241522	      0.91016346	      0.40350222	     26.52142216	     -6.58158951	      2.48395642	     67.31143833	     67.31143833	     -0.15723391	    -15.76662978	     -0.74067909	     21.20738134	     -3.35649693	     -5.98038656	     35.82769251	     35.82769251	     21.28434672	    -18.58515496	     11.20589063	    -11.72706827	      8.60926688	      2.50780037	     -0.02070268	    -10.65750673	    -15.74173599	     19.78931656	     45.78756032	      0.00000000	      0.00000000	     27.99152562	    -17.87566070	      8.27431293	     50.70756055	     45.92898349	      0.00000000	      0.00000000
     38.75242857	     -3.47454880	     -3.69422854	     -5.39089619	      0.99293531	      0.91166954	      0.40327797	     27.92459952	     -6.10561734	      2.83761564	     67.60832004	     67.60832004	     -0.21995312	    -16.90546121	     -0.10373287	     20.21408781	     -3.45122115	     -6.83831447	     35.07598075	     35.07598075	     21.45293071	    -18.59914901	     11.32999114	    -11.75967002	      8.60848056	      2.41642291	     -3.56895123	    -10.46790726	    -15.73026174	     18.69636493	     45.82248399	      0.00000000	      0.00000000	     29.63425021	    -18.89000082	      7.09343090	     52.16539771	     46.07176151	      0.00000000	      0.00000000
     38.77450000	     -3.52271076	     -3.76993989	     -6.36430161	      0.99331792	      0.91402324	      0.40357171	     29.13435846	     -5.59497940	      2.78897871	     66.99359704	     66.99359704	      0.80528529	    -17.35020494	      1.84139166	     19.12597435	     -3.65881876	     -7.74327848	     33.87589303	     33.87589303	     21.22126219	    -18.56063619	     10.90408048	    -11.79584129	      8.71250947	      1.97548905	     -7.52342539	    -10.33735612	    -15.82381122	     20.22725523	     45.81815047	      0.00000000	      0.00000000	     30.01600360	    -19.67081944	      2.80972082	     55.98852162	     46.51492213	      0.00000000	      0.00000000
